<mxfile host="Electron" agent="Mozilla/5.0 (Windows NT 10.0; Win64; x64) AppleWebKit/537.36 (KHTML, like Gecko) draw.io/28.0.6 Chrome/138.0.7204.100 Electron/37.2.3 Safari/537.36" version="28.0.6">
  <diagram name="Page-1" id="GsWMYW5ARXqFeVBUFw3R">
    <mxGraphModel dx="1713" dy="2118" grid="1" gridSize="10" guides="1" tooltips="1" connect="1" arrows="1" fold="1" page="1" pageScale="1" pageWidth="850" pageHeight="1100" math="0" shadow="0">
      <root>
        <mxCell id="0" />
        <mxCell id="1" parent="0" />
        <mxCell id="O76BSKPFtj-TKSeAQ9W2-73" style="edgeStyle=orthogonalEdgeStyle;rounded=0;orthogonalLoop=1;jettySize=auto;html=1;endArrow=none;endFill=0;" edge="1" parent="1" source="O76BSKPFtj-TKSeAQ9W2-1" target="O76BSKPFtj-TKSeAQ9W2-5">
          <mxGeometry relative="1" as="geometry" />
        </mxCell>
        <mxCell id="O76BSKPFtj-TKSeAQ9W2-1" value="Suburb" style="swimlane;fontStyle=0;childLayout=stackLayout;horizontal=1;startSize=30;horizontalStack=0;resizeParent=1;resizeParentMax=0;resizeLast=0;collapsible=1;marginBottom=0;whiteSpace=wrap;html=1;" vertex="1" parent="1">
          <mxGeometry x="60" y="60" width="140" height="120" as="geometry" />
        </mxCell>
        <mxCell id="O76BSKPFtj-TKSeAQ9W2-2" value="SuburbID(&lt;b&gt;PK&lt;/b&gt;)" style="text;strokeColor=none;fillColor=none;align=left;verticalAlign=middle;spacingLeft=4;spacingRight=4;overflow=hidden;points=[[0,0.5],[1,0.5]];portConstraint=eastwest;rotatable=0;whiteSpace=wrap;html=1;" vertex="1" parent="O76BSKPFtj-TKSeAQ9W2-1">
          <mxGeometry y="30" width="140" height="30" as="geometry" />
        </mxCell>
        <mxCell id="O76BSKPFtj-TKSeAQ9W2-3" value="SuburbName&lt;span style=&quot;white-space: pre;&quot;&gt;&#x9;&lt;/span&gt;" style="text;strokeColor=none;fillColor=none;align=left;verticalAlign=middle;spacingLeft=4;spacingRight=4;overflow=hidden;points=[[0,0.5],[1,0.5]];portConstraint=eastwest;rotatable=0;whiteSpace=wrap;html=1;" vertex="1" parent="O76BSKPFtj-TKSeAQ9W2-1">
          <mxGeometry y="60" width="140" height="30" as="geometry" />
        </mxCell>
        <mxCell id="O76BSKPFtj-TKSeAQ9W2-4" value="CityID(&lt;b&gt;PK&lt;/b&gt;)" style="text;strokeColor=none;fillColor=none;align=left;verticalAlign=middle;spacingLeft=4;spacingRight=4;overflow=hidden;points=[[0,0.5],[1,0.5]];portConstraint=eastwest;rotatable=0;whiteSpace=wrap;html=1;movable=0;resizable=0;deletable=0;editable=0;locked=1;connectable=0;" vertex="1" parent="O76BSKPFtj-TKSeAQ9W2-1">
          <mxGeometry y="90" width="140" height="30" as="geometry" />
        </mxCell>
        <mxCell id="O76BSKPFtj-TKSeAQ9W2-5" value="City" style="swimlane;fontStyle=1;childLayout=stackLayout;horizontal=1;startSize=30;horizontalStack=0;resizeParent=1;resizeParentMax=0;resizeLast=0;collapsible=1;marginBottom=0;whiteSpace=wrap;html=1;" vertex="1" parent="1">
          <mxGeometry x="60" y="310" width="140" height="90" as="geometry" />
        </mxCell>
        <mxCell id="O76BSKPFtj-TKSeAQ9W2-6" value="CityID(&lt;b&gt;PK&lt;/b&gt;)" style="text;strokeColor=none;fillColor=none;align=left;verticalAlign=middle;spacingLeft=4;spacingRight=4;overflow=hidden;points=[[0,0.5],[1,0.5]];portConstraint=eastwest;rotatable=0;whiteSpace=wrap;html=1;" vertex="1" parent="O76BSKPFtj-TKSeAQ9W2-5">
          <mxGeometry y="30" width="140" height="30" as="geometry" />
        </mxCell>
        <mxCell id="O76BSKPFtj-TKSeAQ9W2-7" value="CityName" style="text;strokeColor=none;fillColor=none;align=left;verticalAlign=middle;spacingLeft=4;spacingRight=4;overflow=hidden;points=[[0,0.5],[1,0.5]];portConstraint=eastwest;rotatable=0;whiteSpace=wrap;html=1;" vertex="1" parent="O76BSKPFtj-TKSeAQ9W2-5">
          <mxGeometry y="60" width="140" height="30" as="geometry" />
        </mxCell>
        <mxCell id="O76BSKPFtj-TKSeAQ9W2-9" value="Address" style="swimlane;fontStyle=1;childLayout=stackLayout;horizontal=1;startSize=30;horizontalStack=0;resizeParent=0;resizeParentMax=0;resizeLast=0;collapsible=1;marginBottom=0;whiteSpace=wrap;html=1;rotation=0;" vertex="1" parent="1">
          <mxGeometry x="240" y="240" width="140" height="150" as="geometry" />
        </mxCell>
        <mxCell id="O76BSKPFtj-TKSeAQ9W2-10" value="AddressID(&lt;b&gt;PK&lt;/b&gt;)" style="text;strokeColor=none;fillColor=none;align=left;verticalAlign=middle;spacingLeft=4;spacingRight=4;overflow=hidden;points=[[0,0.5],[1,0.5]];portConstraint=eastwest;rotatable=0;whiteSpace=wrap;html=1;" vertex="1" parent="O76BSKPFtj-TKSeAQ9W2-9">
          <mxGeometry y="30" width="140" height="30" as="geometry" />
        </mxCell>
        <mxCell id="O76BSKPFtj-TKSeAQ9W2-11" value="Address Line 1" style="text;strokeColor=none;fillColor=none;align=left;verticalAlign=middle;spacingLeft=4;spacingRight=4;overflow=hidden;points=[[0,0.5],[1,0.5]];portConstraint=eastwest;rotatable=0;whiteSpace=wrap;html=1;" vertex="1" parent="O76BSKPFtj-TKSeAQ9W2-9">
          <mxGeometry y="60" width="140" height="30" as="geometry" />
        </mxCell>
        <mxCell id="O76BSKPFtj-TKSeAQ9W2-12" value="Address Line 2" style="text;strokeColor=none;fillColor=none;align=left;verticalAlign=middle;spacingLeft=4;spacingRight=4;overflow=hidden;points=[[0,0.5],[1,0.5]];portConstraint=eastwest;rotatable=0;whiteSpace=wrap;html=1;" vertex="1" parent="O76BSKPFtj-TKSeAQ9W2-9">
          <mxGeometry y="90" width="140" height="30" as="geometry" />
        </mxCell>
        <mxCell id="O76BSKPFtj-TKSeAQ9W2-52" value="SuburbID(&lt;b&gt;FK&lt;/b&gt;)" style="text;strokeColor=none;fillColor=none;align=left;verticalAlign=middle;spacingLeft=4;spacingRight=4;overflow=hidden;points=[[0,0.5],[1,0.5]];portConstraint=eastwest;rotatable=0;whiteSpace=wrap;html=1;" vertex="1" parent="O76BSKPFtj-TKSeAQ9W2-9">
          <mxGeometry y="120" width="140" height="30" as="geometry" />
        </mxCell>
        <mxCell id="O76BSKPFtj-TKSeAQ9W2-13" value="Customer" style="swimlane;fontStyle=1;childLayout=stackLayout;horizontal=1;startSize=30;horizontalStack=0;resizeParent=0resizeParentMax=0;resizeLast=0;collapsible=1;marginBottom=0;whiteSpace=wrap;html=1;" vertex="1" parent="1">
          <mxGeometry x="410" y="-30" width="140" height="150" as="geometry" />
        </mxCell>
        <mxCell id="O76BSKPFtj-TKSeAQ9W2-14" value="CustomerID(&lt;b&gt;PK&lt;/b&gt;)" style="text;strokeColor=none;fillColor=none;align=left;verticalAlign=middle;spacingLeft=4;spacingRight=4;overflow=hidden;points=[[0,0.5],[1,0.5]];portConstraint=eastwest;rotatable=0;whiteSpace=wrap;html=1;" vertex="1" parent="O76BSKPFtj-TKSeAQ9W2-13">
          <mxGeometry y="30" width="140" height="30" as="geometry" />
        </mxCell>
        <mxCell id="O76BSKPFtj-TKSeAQ9W2-15" value="Full Name" style="text;strokeColor=none;fillColor=none;align=left;verticalAlign=middle;spacingLeft=4;spacingRight=4;overflow=hidden;points=[[0,0.5],[1,0.5]];portConstraint=eastwest;rotatable=0;whiteSpace=wrap;html=1;" vertex="1" parent="O76BSKPFtj-TKSeAQ9W2-13">
          <mxGeometry y="60" width="140" height="30" as="geometry" />
        </mxCell>
        <mxCell id="O76BSKPFtj-TKSeAQ9W2-16" value="Email" style="text;strokeColor=none;fillColor=none;align=left;verticalAlign=middle;spacingLeft=4;spacingRight=4;overflow=hidden;points=[[0,0.5],[1,0.5]];portConstraint=eastwest;rotatable=0;whiteSpace=wrap;html=1;" vertex="1" parent="O76BSKPFtj-TKSeAQ9W2-13">
          <mxGeometry y="90" width="140" height="30" as="geometry" />
        </mxCell>
        <mxCell id="O76BSKPFtj-TKSeAQ9W2-53" value="AddressID(&lt;b&gt;FK&lt;/b&gt;)" style="text;strokeColor=none;fillColor=none;align=left;verticalAlign=middle;spacingLeft=4;spacingRight=4;overflow=hidden;points=[[0,0.5],[1,0.5]];portConstraint=eastwest;rotatable=0;whiteSpace=wrap;html=1;" vertex="1" parent="O76BSKPFtj-TKSeAQ9W2-13">
          <mxGeometry y="120" width="140" height="30" as="geometry" />
        </mxCell>
        <mxCell id="O76BSKPFtj-TKSeAQ9W2-17" value="Order" style="swimlane;fontStyle=1;childLayout=stackLayout;horizontal=1;startSize=30;horizontalStack=0;resizeParent=0;resizeParentMax=0;resizeLast=0;collapsible=1;marginBottom=0;whiteSpace=wrap;html=1;" vertex="1" parent="1">
          <mxGeometry x="640" y="60" width="140" height="150" as="geometry" />
        </mxCell>
        <mxCell id="O76BSKPFtj-TKSeAQ9W2-18" value="OrderID(&lt;b&gt;PK&lt;/b&gt;)" style="text;strokeColor=none;fillColor=none;align=left;verticalAlign=middle;spacingLeft=4;spacingRight=4;overflow=hidden;points=[[0,0.5],[1,0.5]];portConstraint=eastwest;rotatable=0;whiteSpace=wrap;html=1;" vertex="1" parent="O76BSKPFtj-TKSeAQ9W2-17">
          <mxGeometry y="30" width="140" height="30" as="geometry" />
        </mxCell>
        <mxCell id="O76BSKPFtj-TKSeAQ9W2-19" value="CustomerID(&lt;b&gt;FK&lt;/b&gt;)" style="text;strokeColor=none;fillColor=none;align=left;verticalAlign=middle;spacingLeft=4;spacingRight=4;overflow=hidden;points=[[0,0.5],[1,0.5]];portConstraint=eastwest;rotatable=0;whiteSpace=wrap;html=1;" vertex="1" parent="O76BSKPFtj-TKSeAQ9W2-17">
          <mxGeometry y="60" width="140" height="30" as="geometry" />
        </mxCell>
        <mxCell id="O76BSKPFtj-TKSeAQ9W2-20" value="TotalPrice" style="text;strokeColor=none;fillColor=none;align=left;verticalAlign=middle;spacingLeft=4;spacingRight=4;overflow=hidden;points=[[0,0.5],[1,0.5]];portConstraint=eastwest;rotatable=0;whiteSpace=wrap;html=1;" vertex="1" parent="O76BSKPFtj-TKSeAQ9W2-17">
          <mxGeometry y="90" width="140" height="30" as="geometry" />
        </mxCell>
        <mxCell id="O76BSKPFtj-TKSeAQ9W2-54" value="OrderStatus" style="text;strokeColor=none;fillColor=none;align=left;verticalAlign=middle;spacingLeft=4;spacingRight=4;overflow=hidden;points=[[0,0.5],[1,0.5]];portConstraint=eastwest;rotatable=0;whiteSpace=wrap;html=1;" vertex="1" parent="O76BSKPFtj-TKSeAQ9W2-17">
          <mxGeometry y="120" width="140" height="30" as="geometry" />
        </mxCell>
        <mxCell id="O76BSKPFtj-TKSeAQ9W2-21" value="Payment" style="swimlane;fontStyle=1;childLayout=stackLayout;horizontal=1;startSize=30;horizontalStack=0;resizeParent=0;resizeParentMax=0;resizeLast=0;collapsible=1;marginBottom=0;whiteSpace=wrap;html=1;" vertex="1" parent="1">
          <mxGeometry x="630" y="370" width="140" height="180" as="geometry" />
        </mxCell>
        <mxCell id="O76BSKPFtj-TKSeAQ9W2-22" value="PaymentID(&lt;b&gt;PK&lt;/b&gt;)" style="text;strokeColor=none;fillColor=none;align=left;verticalAlign=middle;spacingLeft=4;spacingRight=4;overflow=hidden;points=[[0,0.5],[1,0.5]];portConstraint=eastwest;rotatable=0;whiteSpace=wrap;html=1;" vertex="1" parent="O76BSKPFtj-TKSeAQ9W2-21">
          <mxGeometry y="30" width="140" height="30" as="geometry" />
        </mxCell>
        <mxCell id="O76BSKPFtj-TKSeAQ9W2-23" value="PaymentDate" style="text;strokeColor=none;fillColor=none;align=left;verticalAlign=middle;spacingLeft=4;spacingRight=4;overflow=hidden;points=[[0,0.5],[1,0.5]];portConstraint=eastwest;rotatable=0;whiteSpace=wrap;html=1;" vertex="1" parent="O76BSKPFtj-TKSeAQ9W2-21">
          <mxGeometry y="60" width="140" height="30" as="geometry" />
        </mxCell>
        <mxCell id="O76BSKPFtj-TKSeAQ9W2-24" value="PaymentAmount" style="text;strokeColor=none;fillColor=none;align=left;verticalAlign=middle;spacingLeft=4;spacingRight=4;overflow=hidden;points=[[0,0.5],[1,0.5]];portConstraint=eastwest;rotatable=0;whiteSpace=wrap;html=1;" vertex="1" parent="O76BSKPFtj-TKSeAQ9W2-21">
          <mxGeometry y="90" width="140" height="30" as="geometry" />
        </mxCell>
        <mxCell id="O76BSKPFtj-TKSeAQ9W2-55" value="PaymentMethodID(&lt;b&gt;FK&lt;/b&gt;)" style="text;strokeColor=none;fillColor=none;align=left;verticalAlign=middle;spacingLeft=4;spacingRight=4;overflow=hidden;points=[[0,0.5],[1,0.5]];portConstraint=eastwest;rotatable=0;whiteSpace=wrap;html=1;" vertex="1" parent="O76BSKPFtj-TKSeAQ9W2-21">
          <mxGeometry y="120" width="140" height="30" as="geometry" />
        </mxCell>
        <mxCell id="O76BSKPFtj-TKSeAQ9W2-56" value="OrderID(&lt;b&gt;FK&lt;/b&gt;)" style="text;strokeColor=none;fillColor=none;align=left;verticalAlign=middle;spacingLeft=4;spacingRight=4;overflow=hidden;points=[[0,0.5],[1,0.5]];portConstraint=eastwest;rotatable=0;whiteSpace=wrap;html=1;" vertex="1" parent="O76BSKPFtj-TKSeAQ9W2-21">
          <mxGeometry y="150" width="140" height="30" as="geometry" />
        </mxCell>
        <mxCell id="O76BSKPFtj-TKSeAQ9W2-25" value="Order Book" style="swimlane;fontStyle=1;childLayout=stackLayout;horizontal=1;startSize=30;horizontalStack=0;resizeParent=1;resizeParentMax=0;resizeLast=0;collapsible=1;marginBottom=0;whiteSpace=wrap;html=1;" vertex="1" parent="1">
          <mxGeometry x="900" y="60" width="140" height="120" as="geometry" />
        </mxCell>
        <mxCell id="O76BSKPFtj-TKSeAQ9W2-26" value="OrderBookID(&lt;b&gt;PK&lt;/b&gt;)" style="text;strokeColor=none;fillColor=none;align=left;verticalAlign=middle;spacingLeft=4;spacingRight=4;overflow=hidden;points=[[0,0.5],[1,0.5]];portConstraint=eastwest;rotatable=0;whiteSpace=wrap;html=1;" vertex="1" parent="O76BSKPFtj-TKSeAQ9W2-25">
          <mxGeometry y="30" width="140" height="30" as="geometry" />
        </mxCell>
        <mxCell id="O76BSKPFtj-TKSeAQ9W2-27" value="OrderID(&lt;b&gt;FK&lt;/b&gt;)" style="text;strokeColor=none;fillColor=none;align=left;verticalAlign=middle;spacingLeft=4;spacingRight=4;overflow=hidden;points=[[0,0.5],[1,0.5]];portConstraint=eastwest;rotatable=0;whiteSpace=wrap;html=1;" vertex="1" parent="O76BSKPFtj-TKSeAQ9W2-25">
          <mxGeometry y="60" width="140" height="30" as="geometry" />
        </mxCell>
        <mxCell id="O76BSKPFtj-TKSeAQ9W2-28" value="BookID(&lt;b&gt;FK&lt;/b&gt;)" style="text;strokeColor=none;fillColor=none;align=left;verticalAlign=middle;spacingLeft=4;spacingRight=4;overflow=hidden;points=[[0,0.5],[1,0.5]];portConstraint=eastwest;rotatable=0;whiteSpace=wrap;html=1;" vertex="1" parent="O76BSKPFtj-TKSeAQ9W2-25">
          <mxGeometry y="90" width="140" height="30" as="geometry" />
        </mxCell>
        <mxCell id="O76BSKPFtj-TKSeAQ9W2-29" value="Payment Method" style="swimlane;fontStyle=1;childLayout=stackLayout;horizontal=1;startSize=30;horizontalStack=0;resizeParent=1;resizeParentMax=0;resizeLast=0;collapsible=1;marginBottom=0;whiteSpace=wrap;html=1;" vertex="1" parent="1">
          <mxGeometry x="960" y="370" width="140" height="90" as="geometry" />
        </mxCell>
        <mxCell id="O76BSKPFtj-TKSeAQ9W2-30" value="PaymentMethodID(&lt;b&gt;PK&lt;/b&gt;)" style="text;strokeColor=none;fillColor=none;align=left;verticalAlign=middle;spacingLeft=4;spacingRight=4;overflow=hidden;points=[[0,0.5],[1,0.5]];portConstraint=eastwest;rotatable=0;whiteSpace=wrap;html=1;" vertex="1" parent="O76BSKPFtj-TKSeAQ9W2-29">
          <mxGeometry y="30" width="140" height="30" as="geometry" />
        </mxCell>
        <mxCell id="O76BSKPFtj-TKSeAQ9W2-31" value="PaymentMethodName" style="text;strokeColor=none;fillColor=none;align=left;verticalAlign=middle;spacingLeft=4;spacingRight=4;overflow=hidden;points=[[0,0.5],[1,0.5]];portConstraint=eastwest;rotatable=0;whiteSpace=wrap;html=1;" vertex="1" parent="O76BSKPFtj-TKSeAQ9W2-29">
          <mxGeometry y="60" width="140" height="30" as="geometry" />
        </mxCell>
        <mxCell id="O76BSKPFtj-TKSeAQ9W2-33" value="Review" style="swimlane;fontStyle=1;childLayout=stackLayout;horizontal=1;startSize=30;horizontalStack=0;resizeParent=1;resizeParentMax=0;resizeLast=0;collapsible=1;marginBottom=0;whiteSpace=wrap;html=1;" vertex="1" parent="1">
          <mxGeometry x="760" y="-290" width="140" height="180" as="geometry" />
        </mxCell>
        <mxCell id="O76BSKPFtj-TKSeAQ9W2-34" value="ReviewID(&lt;b&gt;PK&lt;/b&gt;)" style="text;strokeColor=none;fillColor=none;align=left;verticalAlign=middle;spacingLeft=4;spacingRight=4;overflow=hidden;points=[[0,0.5],[1,0.5]];portConstraint=eastwest;rotatable=0;whiteSpace=wrap;html=1;" vertex="1" parent="O76BSKPFtj-TKSeAQ9W2-33">
          <mxGeometry y="30" width="140" height="30" as="geometry" />
        </mxCell>
        <mxCell id="O76BSKPFtj-TKSeAQ9W2-35" value="ReviewRating" style="text;strokeColor=none;fillColor=none;align=left;verticalAlign=middle;spacingLeft=4;spacingRight=4;overflow=hidden;points=[[0,0.5],[1,0.5]];portConstraint=eastwest;rotatable=0;whiteSpace=wrap;html=1;" vertex="1" parent="O76BSKPFtj-TKSeAQ9W2-33">
          <mxGeometry y="60" width="140" height="30" as="geometry" />
        </mxCell>
        <mxCell id="O76BSKPFtj-TKSeAQ9W2-36" value="ReviewText" style="text;strokeColor=none;fillColor=none;align=left;verticalAlign=middle;spacingLeft=4;spacingRight=4;overflow=hidden;points=[[0,0.5],[1,0.5]];portConstraint=eastwest;rotatable=0;whiteSpace=wrap;html=1;" vertex="1" parent="O76BSKPFtj-TKSeAQ9W2-33">
          <mxGeometry y="90" width="140" height="30" as="geometry" />
        </mxCell>
        <mxCell id="O76BSKPFtj-TKSeAQ9W2-60" value="CustomerID(&lt;b&gt;FK&lt;/b&gt;)" style="text;strokeColor=none;fillColor=none;align=left;verticalAlign=middle;spacingLeft=4;spacingRight=4;overflow=hidden;points=[[0,0.5],[1,0.5]];portConstraint=eastwest;rotatable=0;whiteSpace=wrap;html=1;" vertex="1" parent="O76BSKPFtj-TKSeAQ9W2-33">
          <mxGeometry y="120" width="140" height="30" as="geometry" />
        </mxCell>
        <mxCell id="O76BSKPFtj-TKSeAQ9W2-61" value="BookID(&lt;b&gt;FK&lt;/b&gt;)" style="text;strokeColor=none;fillColor=none;align=left;verticalAlign=middle;spacingLeft=4;spacingRight=4;overflow=hidden;points=[[0,0.5],[1,0.5]];portConstraint=eastwest;rotatable=0;whiteSpace=wrap;html=1;" vertex="1" parent="O76BSKPFtj-TKSeAQ9W2-33">
          <mxGeometry y="150" width="140" height="30" as="geometry" />
        </mxCell>
        <mxCell id="O76BSKPFtj-TKSeAQ9W2-37" value="Genre" style="swimlane;fontStyle=1;childLayout=stackLayout;horizontal=1;startSize=30;horizontalStack=0;resizeParent=1;resizeParentMax=0;resizeLast=0;collapsible=1;marginBottom=0;whiteSpace=wrap;html=1;" vertex="1" parent="1">
          <mxGeometry x="1080" y="60" width="140" height="90" as="geometry" />
        </mxCell>
        <mxCell id="O76BSKPFtj-TKSeAQ9W2-38" value="GenreID(&lt;b&gt;PK&lt;/b&gt;)" style="text;strokeColor=none;fillColor=none;align=left;verticalAlign=middle;spacingLeft=4;spacingRight=4;overflow=hidden;points=[[0,0.5],[1,0.5]];portConstraint=eastwest;rotatable=0;whiteSpace=wrap;html=1;" vertex="1" parent="O76BSKPFtj-TKSeAQ9W2-37">
          <mxGeometry y="30" width="140" height="30" as="geometry" />
        </mxCell>
        <mxCell id="O76BSKPFtj-TKSeAQ9W2-39" value="GenreName" style="text;strokeColor=none;fillColor=none;align=left;verticalAlign=middle;spacingLeft=4;spacingRight=4;overflow=hidden;points=[[0,0.5],[1,0.5]];portConstraint=eastwest;rotatable=0;whiteSpace=wrap;html=1;" vertex="1" parent="O76BSKPFtj-TKSeAQ9W2-37">
          <mxGeometry y="60" width="140" height="30" as="geometry" />
        </mxCell>
        <mxCell id="O76BSKPFtj-TKSeAQ9W2-128" style="edgeStyle=orthogonalEdgeStyle;rounded=0;orthogonalLoop=1;jettySize=auto;html=1;exitX=0.5;exitY=0;exitDx=0;exitDy=0;entryX=0.5;entryY=0;entryDx=0;entryDy=0;endArrow=none;endFill=0;" edge="1" parent="1" source="O76BSKPFtj-TKSeAQ9W2-41" target="O76BSKPFtj-TKSeAQ9W2-33">
          <mxGeometry relative="1" as="geometry" />
        </mxCell>
        <mxCell id="O76BSKPFtj-TKSeAQ9W2-41" value="Book" style="swimlane;fontStyle=1;childLayout=stackLayout;horizontal=1;startSize=30;horizontalStack=0;resizeParent=0;resizeParentMax=0;resizeLast=0;collapsible=1;marginBottom=0;whiteSpace=wrap;html=1;" vertex="1" parent="1">
          <mxGeometry x="1030" y="-290" width="140" height="210" as="geometry" />
        </mxCell>
        <mxCell id="O76BSKPFtj-TKSeAQ9W2-42" value="BookID(&lt;b&gt;PK&lt;/b&gt;)" style="text;strokeColor=none;fillColor=none;align=left;verticalAlign=middle;spacingLeft=4;spacingRight=4;overflow=hidden;points=[[0,0.5],[1,0.5]];portConstraint=eastwest;rotatable=0;whiteSpace=wrap;html=1;" vertex="1" parent="O76BSKPFtj-TKSeAQ9W2-41">
          <mxGeometry y="30" width="140" height="30" as="geometry" />
        </mxCell>
        <mxCell id="O76BSKPFtj-TKSeAQ9W2-43" value="BookTitle" style="text;strokeColor=none;fillColor=none;align=left;verticalAlign=middle;spacingLeft=4;spacingRight=4;overflow=hidden;points=[[0,0.5],[1,0.5]];portConstraint=eastwest;rotatable=0;whiteSpace=wrap;html=1;" vertex="1" parent="O76BSKPFtj-TKSeAQ9W2-41">
          <mxGeometry y="60" width="140" height="30" as="geometry" />
        </mxCell>
        <mxCell id="O76BSKPFtj-TKSeAQ9W2-44" value="AuthorID(&lt;b&gt;FK&lt;/b&gt;)" style="text;strokeColor=none;fillColor=none;align=left;verticalAlign=middle;spacingLeft=4;spacingRight=4;overflow=hidden;points=[[0,0.5],[1,0.5]];portConstraint=eastwest;rotatable=0;whiteSpace=wrap;html=1;" vertex="1" parent="O76BSKPFtj-TKSeAQ9W2-41">
          <mxGeometry y="90" width="140" height="30" as="geometry" />
        </mxCell>
        <mxCell id="O76BSKPFtj-TKSeAQ9W2-57" value="GenreID(&lt;b&gt;FK&lt;/b&gt;)" style="text;strokeColor=none;fillColor=none;align=left;verticalAlign=middle;spacingLeft=4;spacingRight=4;overflow=hidden;points=[[0,0.5],[1,0.5]];portConstraint=eastwest;rotatable=0;whiteSpace=wrap;html=1;" vertex="1" parent="O76BSKPFtj-TKSeAQ9W2-41">
          <mxGeometry y="120" width="140" height="30" as="geometry" />
        </mxCell>
        <mxCell id="O76BSKPFtj-TKSeAQ9W2-58" value="BookPrice" style="text;strokeColor=none;fillColor=none;align=left;verticalAlign=middle;spacingLeft=4;spacingRight=4;overflow=hidden;points=[[0,0.5],[1,0.5]];portConstraint=eastwest;rotatable=0;whiteSpace=wrap;html=1;" vertex="1" parent="O76BSKPFtj-TKSeAQ9W2-41">
          <mxGeometry y="150" width="140" height="30" as="geometry" />
        </mxCell>
        <mxCell id="O76BSKPFtj-TKSeAQ9W2-59" value="QuantityInStock" style="text;strokeColor=none;fillColor=none;align=left;verticalAlign=middle;spacingLeft=4;spacingRight=4;overflow=hidden;points=[[0,0.5],[1,0.5]];portConstraint=eastwest;rotatable=0;whiteSpace=wrap;html=1;" vertex="1" parent="O76BSKPFtj-TKSeAQ9W2-41">
          <mxGeometry y="180" width="140" height="30" as="geometry" />
        </mxCell>
        <mxCell id="O76BSKPFtj-TKSeAQ9W2-45" value="Author" style="swimlane;fontStyle=1;childLayout=stackLayout;horizontal=1;startSize=30;horizontalStack=0;resizeParent=1;resizeParentMax=0;resizeLast=0;collapsible=1;marginBottom=0;whiteSpace=wrap;html=1;" vertex="1" parent="1">
          <mxGeometry x="1290" y="-290" width="140" height="90" as="geometry" />
        </mxCell>
        <mxCell id="O76BSKPFtj-TKSeAQ9W2-46" value="AuthorID(&lt;b&gt;PK&lt;/b&gt;)" style="text;strokeColor=none;fillColor=none;align=left;verticalAlign=middle;spacingLeft=4;spacingRight=4;overflow=hidden;points=[[0,0.5],[1,0.5]];portConstraint=eastwest;rotatable=0;whiteSpace=wrap;html=1;" vertex="1" parent="O76BSKPFtj-TKSeAQ9W2-45">
          <mxGeometry y="30" width="140" height="30" as="geometry" />
        </mxCell>
        <mxCell id="O76BSKPFtj-TKSeAQ9W2-47" value="AuthorName" style="text;strokeColor=none;fillColor=none;align=left;verticalAlign=middle;spacingLeft=4;spacingRight=4;overflow=hidden;points=[[0,0.5],[1,0.5]];portConstraint=eastwest;rotatable=0;whiteSpace=wrap;html=1;" vertex="1" parent="O76BSKPFtj-TKSeAQ9W2-45">
          <mxGeometry y="60" width="140" height="30" as="geometry" />
        </mxCell>
        <mxCell id="O76BSKPFtj-TKSeAQ9W2-65" value="0..*" style="text;html=1;align=center;verticalAlign=middle;resizable=0;points=[];autosize=1;strokeColor=none;fillColor=none;" vertex="1" parent="1">
          <mxGeometry x="90" y="180" width="40" height="30" as="geometry" />
        </mxCell>
        <mxCell id="O76BSKPFtj-TKSeAQ9W2-66" value="1..1" style="text;html=1;align=center;verticalAlign=middle;resizable=0;points=[];autosize=1;strokeColor=none;fillColor=none;" vertex="1" parent="1">
          <mxGeometry x="90" y="280" width="40" height="30" as="geometry" />
        </mxCell>
        <mxCell id="O76BSKPFtj-TKSeAQ9W2-74" value="" style="endArrow=classic;html=1;rounded=0;" edge="1" parent="1">
          <mxGeometry width="50" height="50" relative="1" as="geometry">
            <mxPoint x="140" y="210" as="sourcePoint" />
            <mxPoint x="140" y="290" as="targetPoint" />
          </mxGeometry>
        </mxCell>
        <mxCell id="O76BSKPFtj-TKSeAQ9W2-75" value="Belongs to" style="text;html=1;align=center;verticalAlign=middle;resizable=0;points=[];autosize=1;strokeColor=none;fillColor=none;rotation=90;" vertex="1" parent="1">
          <mxGeometry x="110" y="228" width="80" height="30" as="geometry" />
        </mxCell>
        <mxCell id="O76BSKPFtj-TKSeAQ9W2-76" style="edgeStyle=orthogonalEdgeStyle;rounded=0;orthogonalLoop=1;jettySize=auto;html=1;exitX=1.005;exitY=0.167;exitDx=0;exitDy=0;endArrow=none;endFill=0;exitPerimeter=0;entryX=0.09;entryY=0.019;entryDx=0;entryDy=0;entryPerimeter=0;" edge="1" parent="1" source="O76BSKPFtj-TKSeAQ9W2-1" target="O76BSKPFtj-TKSeAQ9W2-9">
          <mxGeometry relative="1" as="geometry" />
        </mxCell>
        <mxCell id="O76BSKPFtj-TKSeAQ9W2-77" value="1..1" style="text;html=1;align=center;verticalAlign=middle;resizable=0;points=[];autosize=1;strokeColor=none;fillColor=none;" vertex="1" parent="1">
          <mxGeometry x="200" y="50" width="40" height="30" as="geometry" />
        </mxCell>
        <mxCell id="O76BSKPFtj-TKSeAQ9W2-78" value="1..*" style="text;html=1;align=center;verticalAlign=middle;resizable=0;points=[];autosize=1;strokeColor=none;fillColor=none;" vertex="1" parent="1">
          <mxGeometry x="250" y="210" width="40" height="30" as="geometry" />
        </mxCell>
        <mxCell id="O76BSKPFtj-TKSeAQ9W2-79" style="edgeStyle=orthogonalEdgeStyle;rounded=0;orthogonalLoop=1;jettySize=auto;html=1;exitX=0.75;exitY=0;exitDx=0;exitDy=0;entryX=0;entryY=0.133;entryDx=0;entryDy=0;entryPerimeter=0;endArrow=none;endFill=0;" edge="1" parent="1" source="O76BSKPFtj-TKSeAQ9W2-9" target="O76BSKPFtj-TKSeAQ9W2-13">
          <mxGeometry relative="1" as="geometry" />
        </mxCell>
        <mxCell id="O76BSKPFtj-TKSeAQ9W2-80" value="" style="endArrow=classic;html=1;rounded=0;" edge="1" parent="1">
          <mxGeometry width="50" height="50" relative="1" as="geometry">
            <mxPoint x="240" y="210" as="sourcePoint" />
            <mxPoint x="240" y="120" as="targetPoint" />
          </mxGeometry>
        </mxCell>
        <mxCell id="O76BSKPFtj-TKSeAQ9W2-82" value="Contains" style="text;html=1;align=center;verticalAlign=middle;resizable=0;points=[];autosize=1;strokeColor=none;fillColor=none;rotation=-90;" vertex="1" parent="1">
          <mxGeometry x="190" y="150" width="70" height="30" as="geometry" />
        </mxCell>
        <mxCell id="O76BSKPFtj-TKSeAQ9W2-83" value="1..1" style="text;html=1;align=center;verticalAlign=middle;resizable=0;points=[];autosize=1;strokeColor=none;fillColor=none;" vertex="1" parent="1">
          <mxGeometry x="370" y="-32" width="40" height="30" as="geometry" />
        </mxCell>
        <mxCell id="O76BSKPFtj-TKSeAQ9W2-84" value="1..1" style="text;html=1;align=center;verticalAlign=middle;resizable=0;points=[];autosize=1;strokeColor=none;fillColor=none;" vertex="1" parent="1">
          <mxGeometry x="310" y="218" width="40" height="30" as="geometry" />
        </mxCell>
        <mxCell id="O76BSKPFtj-TKSeAQ9W2-85" value="" style="endArrow=classic;html=1;rounded=0;" edge="1" parent="1">
          <mxGeometry width="50" height="50" relative="1" as="geometry">
            <mxPoint x="340" y="70" as="sourcePoint" />
            <mxPoint x="340" y="143" as="targetPoint" />
          </mxGeometry>
        </mxCell>
        <mxCell id="O76BSKPFtj-TKSeAQ9W2-86" value="Has an" style="text;html=1;align=center;verticalAlign=middle;resizable=0;points=[];autosize=1;strokeColor=none;fillColor=none;rotation=-90;" vertex="1" parent="1">
          <mxGeometry x="300" y="88" width="60" height="30" as="geometry" />
        </mxCell>
        <mxCell id="O76BSKPFtj-TKSeAQ9W2-90" style="edgeStyle=orthogonalEdgeStyle;rounded=0;orthogonalLoop=1;jettySize=auto;html=1;exitX=0.5;exitY=0;exitDx=0;exitDy=0;entryX=0;entryY=0.111;entryDx=0;entryDy=0;entryPerimeter=0;endArrow=none;endFill=0;" edge="1" parent="1" source="O76BSKPFtj-TKSeAQ9W2-13" target="O76BSKPFtj-TKSeAQ9W2-33">
          <mxGeometry relative="1" as="geometry" />
        </mxCell>
        <mxCell id="O76BSKPFtj-TKSeAQ9W2-91" value="1..1" style="text;html=1;align=center;verticalAlign=middle;resizable=0;points=[];autosize=1;strokeColor=none;fillColor=none;" vertex="1" parent="1">
          <mxGeometry x="450" y="-52" width="40" height="30" as="geometry" />
        </mxCell>
        <mxCell id="O76BSKPFtj-TKSeAQ9W2-92" value="0..*" style="text;html=1;align=center;verticalAlign=middle;resizable=0;points=[];autosize=1;strokeColor=none;fillColor=none;" vertex="1" parent="1">
          <mxGeometry x="720" y="-300" width="40" height="30" as="geometry" />
        </mxCell>
        <mxCell id="O76BSKPFtj-TKSeAQ9W2-94" value="" style="endArrow=classic;html=1;rounded=0;" edge="1" parent="1">
          <mxGeometry width="50" height="50" relative="1" as="geometry">
            <mxPoint x="469.74" y="-110" as="sourcePoint" />
            <mxPoint x="469.74" y="-200" as="targetPoint" />
          </mxGeometry>
        </mxCell>
        <mxCell id="O76BSKPFtj-TKSeAQ9W2-95" value="Can write" style="text;html=1;align=center;verticalAlign=middle;resizable=0;points=[];autosize=1;strokeColor=none;fillColor=none;rotation=-90;" vertex="1" parent="1">
          <mxGeometry x="425" y="-170" width="70" height="30" as="geometry" />
        </mxCell>
        <mxCell id="O76BSKPFtj-TKSeAQ9W2-96" style="edgeStyle=orthogonalEdgeStyle;rounded=0;orthogonalLoop=1;jettySize=auto;html=1;exitX=0.5;exitY=0;exitDx=0;exitDy=0;entryX=0.991;entryY=0.147;entryDx=0;entryDy=0;entryPerimeter=0;endArrow=none;endFill=0;" edge="1" parent="1" source="O76BSKPFtj-TKSeAQ9W2-17" target="O76BSKPFtj-TKSeAQ9W2-13">
          <mxGeometry relative="1" as="geometry" />
        </mxCell>
        <mxCell id="O76BSKPFtj-TKSeAQ9W2-97" value="1..1" style="text;html=1;align=center;verticalAlign=middle;resizable=0;points=[];autosize=1;strokeColor=none;fillColor=none;" vertex="1" parent="1">
          <mxGeometry x="550" y="-30" width="40" height="30" as="geometry" />
        </mxCell>
        <mxCell id="O76BSKPFtj-TKSeAQ9W2-98" value="0..*" style="text;html=1;align=center;verticalAlign=middle;resizable=0;points=[];autosize=1;strokeColor=none;fillColor=none;" vertex="1" parent="1">
          <mxGeometry x="700" y="38" width="40" height="30" as="geometry" />
        </mxCell>
        <mxCell id="O76BSKPFtj-TKSeAQ9W2-99" value="" style="endArrow=classic;html=1;rounded=0;" edge="1" parent="1">
          <mxGeometry width="50" height="50" relative="1" as="geometry">
            <mxPoint x="610" y="-22" as="sourcePoint" />
            <mxPoint x="680" y="-22" as="targetPoint" />
          </mxGeometry>
        </mxCell>
        <mxCell id="O76BSKPFtj-TKSeAQ9W2-100" value="Places" style="text;html=1;align=center;verticalAlign=middle;resizable=0;points=[];autosize=1;strokeColor=none;fillColor=none;" vertex="1" parent="1">
          <mxGeometry x="610" y="-52" width="60" height="30" as="geometry" />
        </mxCell>
        <mxCell id="O76BSKPFtj-TKSeAQ9W2-102" style="edgeStyle=orthogonalEdgeStyle;rounded=0;orthogonalLoop=1;jettySize=auto;html=1;exitX=0.5;exitY=0;exitDx=0;exitDy=0;entryX=0.429;entryY=1.025;entryDx=0;entryDy=0;entryPerimeter=0;endArrow=none;endFill=0;" edge="1" parent="1" source="O76BSKPFtj-TKSeAQ9W2-21" target="O76BSKPFtj-TKSeAQ9W2-54">
          <mxGeometry relative="1" as="geometry" />
        </mxCell>
        <mxCell id="O76BSKPFtj-TKSeAQ9W2-103" value="1..1" style="text;html=1;align=center;verticalAlign=middle;resizable=0;points=[];autosize=1;strokeColor=none;fillColor=none;" vertex="1" parent="1">
          <mxGeometry x="660" y="210" width="40" height="30" as="geometry" />
        </mxCell>
        <mxCell id="O76BSKPFtj-TKSeAQ9W2-104" value="1..1" style="text;html=1;align=center;verticalAlign=middle;resizable=0;points=[];autosize=1;strokeColor=none;fillColor=none;" vertex="1" parent="1">
          <mxGeometry x="660" y="348" width="40" height="30" as="geometry" />
        </mxCell>
        <mxCell id="O76BSKPFtj-TKSeAQ9W2-105" value="" style="endArrow=classic;html=1;rounded=0;" edge="1" parent="1">
          <mxGeometry width="50" height="50" relative="1" as="geometry">
            <mxPoint x="709.69" y="350" as="sourcePoint" />
            <mxPoint x="709.69" y="260" as="targetPoint" />
            <Array as="points">
              <mxPoint x="709.69" y="310" />
            </Array>
          </mxGeometry>
        </mxCell>
        <mxCell id="O76BSKPFtj-TKSeAQ9W2-106" value="Assiciated" style="text;html=1;align=center;verticalAlign=middle;resizable=0;points=[];autosize=1;strokeColor=none;fillColor=none;rotation=90;" vertex="1" parent="1">
          <mxGeometry x="680" y="290" width="80" height="30" as="geometry" />
        </mxCell>
        <mxCell id="O76BSKPFtj-TKSeAQ9W2-109" style="edgeStyle=orthogonalEdgeStyle;rounded=0;orthogonalLoop=1;jettySize=auto;html=1;exitX=0;exitY=0.25;exitDx=0;exitDy=0;entryX=1.011;entryY=0.121;entryDx=0;entryDy=0;entryPerimeter=0;endArrow=none;endFill=0;" edge="1" parent="1" source="O76BSKPFtj-TKSeAQ9W2-29" target="O76BSKPFtj-TKSeAQ9W2-21">
          <mxGeometry relative="1" as="geometry" />
        </mxCell>
        <mxCell id="O76BSKPFtj-TKSeAQ9W2-110" value="0..*" style="text;html=1;align=center;verticalAlign=middle;resizable=0;points=[];autosize=1;strokeColor=none;fillColor=none;" vertex="1" parent="1">
          <mxGeometry x="770" y="368" width="40" height="30" as="geometry" />
        </mxCell>
        <mxCell id="O76BSKPFtj-TKSeAQ9W2-111" value="1..1" style="text;html=1;align=center;verticalAlign=middle;resizable=0;points=[];autosize=1;strokeColor=none;fillColor=none;" vertex="1" parent="1">
          <mxGeometry x="920" y="368" width="40" height="30" as="geometry" />
        </mxCell>
        <mxCell id="O76BSKPFtj-TKSeAQ9W2-112" value="" style="endArrow=classic;html=1;rounded=0;" edge="1" parent="1">
          <mxGeometry width="50" height="50" relative="1" as="geometry">
            <mxPoint x="830" y="420" as="sourcePoint" />
            <mxPoint x="890" y="420" as="targetPoint" />
          </mxGeometry>
        </mxCell>
        <mxCell id="O76BSKPFtj-TKSeAQ9W2-113" value="Uses" style="text;html=1;align=center;verticalAlign=middle;resizable=0;points=[];autosize=1;strokeColor=none;fillColor=none;" vertex="1" parent="1">
          <mxGeometry x="830" y="398" width="50" height="30" as="geometry" />
        </mxCell>
        <mxCell id="O76BSKPFtj-TKSeAQ9W2-117" style="edgeStyle=orthogonalEdgeStyle;rounded=0;orthogonalLoop=1;jettySize=auto;html=1;exitX=0.5;exitY=0;exitDx=0;exitDy=0;entryX=-0.007;entryY=0.057;entryDx=0;entryDy=0;entryPerimeter=0;endArrow=none;endFill=0;" edge="1" parent="1" source="O76BSKPFtj-TKSeAQ9W2-25" target="O76BSKPFtj-TKSeAQ9W2-41">
          <mxGeometry relative="1" as="geometry" />
        </mxCell>
        <mxCell id="O76BSKPFtj-TKSeAQ9W2-119" style="edgeStyle=orthogonalEdgeStyle;rounded=0;orthogonalLoop=1;jettySize=auto;html=1;entryX=0.008;entryY=0.171;entryDx=0;entryDy=0;entryPerimeter=0;endArrow=none;endFill=0;" edge="1" parent="1" target="O76BSKPFtj-TKSeAQ9W2-25">
          <mxGeometry relative="1" as="geometry">
            <mxPoint x="781" y="80" as="sourcePoint" />
          </mxGeometry>
        </mxCell>
        <mxCell id="O76BSKPFtj-TKSeAQ9W2-120" value="1..1" style="text;html=1;align=center;verticalAlign=middle;resizable=0;points=[];autosize=1;strokeColor=none;fillColor=none;" vertex="1" parent="1">
          <mxGeometry x="770" y="58" width="40" height="30" as="geometry" />
        </mxCell>
        <mxCell id="O76BSKPFtj-TKSeAQ9W2-121" value="1..*" style="text;html=1;align=center;verticalAlign=middle;resizable=0;points=[];autosize=1;strokeColor=none;fillColor=none;" vertex="1" parent="1">
          <mxGeometry x="860" y="58" width="40" height="30" as="geometry" />
        </mxCell>
        <mxCell id="O76BSKPFtj-TKSeAQ9W2-122" value="" style="endArrow=classic;html=1;rounded=0;" edge="1" parent="1">
          <mxGeometry width="50" height="50" relative="1" as="geometry">
            <mxPoint x="805" y="104.87" as="sourcePoint" />
            <mxPoint x="885" y="104.87" as="targetPoint" />
          </mxGeometry>
        </mxCell>
        <mxCell id="O76BSKPFtj-TKSeAQ9W2-123" value="Can appear" style="text;html=1;align=center;verticalAlign=middle;resizable=0;points=[];autosize=1;strokeColor=none;fillColor=none;" vertex="1" parent="1">
          <mxGeometry x="795" y="80" width="90" height="30" as="geometry" />
        </mxCell>
        <mxCell id="O76BSKPFtj-TKSeAQ9W2-124" value="1..1" style="text;html=1;align=center;verticalAlign=middle;resizable=0;points=[];autosize=1;strokeColor=none;fillColor=none;" vertex="1" parent="1">
          <mxGeometry x="990" y="-302" width="40" height="30" as="geometry" />
        </mxCell>
        <mxCell id="O76BSKPFtj-TKSeAQ9W2-125" value="1..*" style="text;html=1;align=center;verticalAlign=middle;resizable=0;points=[];autosize=1;strokeColor=none;fillColor=none;" vertex="1" parent="1">
          <mxGeometry x="930" y="28" width="40" height="30" as="geometry" />
        </mxCell>
        <mxCell id="O76BSKPFtj-TKSeAQ9W2-126" value="" style="endArrow=classic;html=1;rounded=0;" edge="1" parent="1">
          <mxGeometry width="50" height="50" relative="1" as="geometry">
            <mxPoint x="959.44" y="-160" as="sourcePoint" />
            <mxPoint x="960" y="-80" as="targetPoint" />
          </mxGeometry>
        </mxCell>
        <mxCell id="O76BSKPFtj-TKSeAQ9W2-127" value="Contains" style="text;html=1;align=center;verticalAlign=middle;resizable=0;points=[];autosize=1;strokeColor=none;fillColor=none;rotation=-90;" vertex="1" parent="1">
          <mxGeometry x="915" y="-140" width="70" height="30" as="geometry" />
        </mxCell>
        <mxCell id="O76BSKPFtj-TKSeAQ9W2-129" value="1..1" style="text;html=1;align=center;verticalAlign=middle;resizable=0;points=[];autosize=1;strokeColor=none;fillColor=none;" vertex="1" parent="1">
          <mxGeometry x="1100" y="-312" width="40" height="30" as="geometry" />
        </mxCell>
        <mxCell id="O76BSKPFtj-TKSeAQ9W2-130" value="0..*" style="text;html=1;align=center;verticalAlign=middle;resizable=0;points=[];autosize=1;strokeColor=none;fillColor=none;" vertex="1" parent="1">
          <mxGeometry x="795" y="-312" width="40" height="30" as="geometry" />
        </mxCell>
        <mxCell id="O76BSKPFtj-TKSeAQ9W2-131" value="" style="endArrow=classic;html=1;rounded=0;" edge="1" parent="1">
          <mxGeometry width="50" height="50" relative="1" as="geometry">
            <mxPoint x="990" y="-320" as="sourcePoint" />
            <mxPoint x="940" y="-320" as="targetPoint" />
          </mxGeometry>
        </mxCell>
        <mxCell id="O76BSKPFtj-TKSeAQ9W2-132" value="Has" style="text;html=1;align=center;verticalAlign=middle;resizable=0;points=[];autosize=1;strokeColor=none;fillColor=none;" vertex="1" parent="1">
          <mxGeometry x="950" y="-342" width="40" height="30" as="geometry" />
        </mxCell>
        <mxCell id="O76BSKPFtj-TKSeAQ9W2-134" style="edgeStyle=orthogonalEdgeStyle;rounded=0;orthogonalLoop=1;jettySize=auto;html=1;exitX=0;exitY=0.25;exitDx=0;exitDy=0;entryX=1.002;entryY=0.104;entryDx=0;entryDy=0;entryPerimeter=0;endArrow=none;endFill=0;" edge="1" parent="1" source="O76BSKPFtj-TKSeAQ9W2-45" target="O76BSKPFtj-TKSeAQ9W2-41">
          <mxGeometry relative="1" as="geometry" />
        </mxCell>
        <mxCell id="O76BSKPFtj-TKSeAQ9W2-135" value="1..*" style="text;html=1;align=center;verticalAlign=middle;resizable=0;points=[];autosize=1;strokeColor=none;fillColor=none;" vertex="1" parent="1">
          <mxGeometry x="1160" y="-292" width="40" height="30" as="geometry" />
        </mxCell>
        <mxCell id="O76BSKPFtj-TKSeAQ9W2-136" value="1..1" style="text;html=1;align=center;verticalAlign=middle;resizable=0;points=[];autosize=1;strokeColor=none;fillColor=none;" vertex="1" parent="1">
          <mxGeometry x="1255" y="-292" width="40" height="30" as="geometry" />
        </mxCell>
        <mxCell id="O76BSKPFtj-TKSeAQ9W2-137" value="" style="endArrow=classic;html=1;rounded=0;" edge="1" parent="1">
          <mxGeometry width="50" height="50" relative="1" as="geometry">
            <mxPoint x="1202.5" y="-245.26" as="sourcePoint" />
            <mxPoint x="1257.5" y="-245.26" as="targetPoint" />
          </mxGeometry>
        </mxCell>
        <mxCell id="O76BSKPFtj-TKSeAQ9W2-138" value="Has" style="text;html=1;align=center;verticalAlign=middle;resizable=0;points=[];autosize=1;strokeColor=none;fillColor=none;" vertex="1" parent="1">
          <mxGeometry x="1210" y="-270" width="40" height="30" as="geometry" />
        </mxCell>
        <mxCell id="O76BSKPFtj-TKSeAQ9W2-139" style="edgeStyle=orthogonalEdgeStyle;rounded=0;orthogonalLoop=1;jettySize=auto;html=1;exitX=0.5;exitY=0;exitDx=0;exitDy=0;entryX=0.857;entryY=1.009;entryDx=0;entryDy=0;entryPerimeter=0;endArrow=none;endFill=0;" edge="1" parent="1" source="O76BSKPFtj-TKSeAQ9W2-37" target="O76BSKPFtj-TKSeAQ9W2-59">
          <mxGeometry relative="1" as="geometry" />
        </mxCell>
        <mxCell id="O76BSKPFtj-TKSeAQ9W2-140" value="0..*" style="text;html=1;align=center;verticalAlign=middle;resizable=0;points=[];autosize=1;strokeColor=none;fillColor=none;" vertex="1" parent="1">
          <mxGeometry x="1110" y="-82" width="40" height="30" as="geometry" />
        </mxCell>
        <mxCell id="O76BSKPFtj-TKSeAQ9W2-141" value="1..1" style="text;html=1;align=center;verticalAlign=middle;resizable=0;points=[];autosize=1;strokeColor=none;fillColor=none;" vertex="1" parent="1">
          <mxGeometry x="1110" y="30" width="40" height="30" as="geometry" />
        </mxCell>
        <mxCell id="O76BSKPFtj-TKSeAQ9W2-142" value="" style="endArrow=classic;html=1;rounded=0;" edge="1" parent="1">
          <mxGeometry width="50" height="50" relative="1" as="geometry">
            <mxPoint x="1160" y="-60" as="sourcePoint" />
            <mxPoint x="1160" y="38" as="targetPoint" />
          </mxGeometry>
        </mxCell>
        <mxCell id="O76BSKPFtj-TKSeAQ9W2-143" value="Belongs to" style="text;html=1;align=center;verticalAlign=middle;resizable=0;points=[];autosize=1;strokeColor=none;fillColor=none;rotation=90;" vertex="1" parent="1">
          <mxGeometry x="1130" y="-32" width="80" height="30" as="geometry" />
        </mxCell>
      </root>
    </mxGraphModel>
  </diagram>
</mxfile>
